<svg width="358" height="108" viewBox="0 0 358 108" fill="none" xmlns="http://www.w3.org/2000/svg">
<path d="M10.1875 1C11.9375 1 13.4375 1.59375 14.6875 2.78125C15.9375 3.90625 16.5938 5.34375 16.6562 7.09375V29.6875C16.5938 32.25 16.75 34.625 17.125 36.8125C17.5625 38.9375 18.5625 40.8438 20.125 42.5312C21.6875 44.2188 23.6562 45.125 26.0312 45.25H56.0312C57.7812 45.3125 59.2188 45.9688 60.3438 47.2188C61.5312 48.4688 62.125 49.9688 62.125 51.7188C62.0625 53.4062 61.4375 54.8438 60.25 56.0312C59.125 57.1562 57.7188 57.75 56.0312 57.8125H22.8438C18.4688 57.5625 14.8438 56.0938 11.9688 53.4062C9.15625 50.6562 7.125 47.3125 5.875 43.375C4.6875 39.4375 4.0625 35.25 4 30.8125V7.09375C4.0625 5.40625 4.6875 4 5.875 2.875C7.0625 1.6875 8.5 1.0625 10.1875 1ZM92.125 43.2812C92.125 41.5312 92.7188 40.0625 93.9062 38.875C95.1562 37.625 96.6562 37 98.4062 37H112.75L110.312 30.0625C109.312 27.5 108.312 25.0938 107.312 22.8438C106.375 20.5312 105.281 18.4375 104.031 16.5625C102.906 14.6875 101.625 13.6875 100.188 13.5625C98.6875 13.6875 97.3438 14.6875 96.1562 16.5625C94.9688 18.4375 93.875 20.5312 92.875 22.8438C91.9375 25.0938 90.9688 27.5 89.9688 30.0625L81.0625 54.4375C80.4375 55.75 79.625 56.8438 78.625 57.7188C77.6875 58.5312 76.25 58.9375 74.3125 58.9375C72.5 58.9375 71 58.3125 69.8125 57.0625C68.6875 55.8125 68.1875 54.3125 68.3125 52.5625C68.375 51.75 68.5625 51 68.875 50.3125L79.1875 23.6875C82.0625 16.6875 84.9375 11.0312 87.8125 6.71875C90.625 2.46875 94.75 0.3125 100.188 0.25C105.562 0.3125 109.656 2.46875 112.469 6.71875C115.344 10.9062 118.219 16.5625 121.094 23.6875L131.406 50.3125C131.719 51 131.906 51.75 131.969 52.5625C132.094 54.3125 131.562 55.8125 130.375 57.0625C129.25 58.3125 127.781 58.9375 125.969 58.9375C123.906 58.9375 122.375 58.5312 121.375 57.7188C120.438 56.8438 119.656 55.75 119.031 54.4375L117.25 49.5625H98.4062C96.6562 49.5625 95.1875 48.9375 94 47.6875C92.75 46.5 92.125 45.0312 92.125 43.2812ZM0.89 107V83.2H5.65V102.92H13.776V107H0.89ZM28.5408 83.2L37.0408 107H32.3488L30.5468 101.866H21.6388L19.8368 107H15.1448L23.6448 83.2H28.5408ZM26.0588 89.184L23.0668 97.786H29.0848L26.1268 89.184H26.0588ZM162.822 107V83.2H167.582V93.91H167.65L176.524 83.2H182.168L172.784 94.352L183.222 107H177.51L169.928 97.752L167.582 100.506V107H162.822ZM227.736 104.722L223.792 107H209.206V83.2H223.792L227.736 85.478V104.722ZM213.966 87.28V102.92H222.976V87.28H213.966ZM238.271 96.8V102.92H247.757V107H233.511V83.2H247.757V87.28H238.271V92.72H245.717V96.8H238.271Z" fill="#065EB2"/>
<path d="M147.812 1C149.5 1.0625 150.938 1.6875 152.125 2.875C153.312 4 153.938 5.40625 154 7.09375V53.0312C153.625 56.7812 151.562 58.8125 147.812 59.125C146.062 59.125 144.531 58.5625 143.219 57.4375C141.969 56.25 141.344 54.7812 141.344 53.0312V7.09375C141.406 5.34375 142.062 3.90625 143.312 2.78125C144.562 1.59375 146.062 1 147.812 1ZM163.844 17.5C168.031 14.6875 173.688 11.8438 180.812 8.96875L196.188 2.40625C196.875 2.09375 197.625 1.90625 198.438 1.84375C200.188 1.71875 201.688 2.25 202.938 3.4375C204.188 4.5625 204.812 6.03125 204.812 7.84375C204.812 9.90625 204.375 11.4375 203.5 12.4375C202.688 13.375 201.625 14.1562 200.312 14.7812L187.188 19.75C184.625 20.75 182.188 21.75 179.875 22.75C177.625 23.6875 175.562 24.7812 173.688 26.0312C171.812 27.1562 170.812 28.4375 170.688 29.875C170.812 31.25 171.812 32.5312 173.688 33.7188C175.562 34.9688 177.625 36.0938 179.875 37.0938C182.188 38.0312 184.625 39 187.188 40L201.812 45.3438C203.125 45.9688 204.188 46.7812 205 47.7812C205.875 48.7188 206.312 50.2188 206.312 52.2812C206.312 54.0938 205.688 55.5938 204.438 56.7812C203.188 57.9062 201.688 58.4062 199.938 58.2812C199.125 58.2188 198.375 58.0312 197.688 57.7188L180.812 50.7812C173.688 47.9062 168 45.0625 163.75 42.25C159.562 39.375 157.438 35.25 157.375 29.875C157.438 24.5 159.594 20.375 163.844 17.5ZM233.219 2.5H237.531H269.406C271.156 2.5625 272.594 3.21875 273.719 4.46875C274.906 5.71875 275.5 7.21875 275.5 8.96875C275.188 12.7188 273.156 14.75 269.406 15.0625H236.406C234.031 15.1875 232.062 16.0938 230.5 17.7812C228.938 19.4688 227.781 21.4062 227.031 23.5938C226.344 25.7188 226 27.9062 226 30.1562C226 32.4062 226.344 34.625 227.031 36.8125C227.781 38.9375 228.938 40.8438 230.5 42.5312C232.062 44.2188 234.031 45.125 236.406 45.25H269.406C271.156 45.3125 272.594 45.9688 273.719 47.2188C274.906 48.4688 275.5 49.9688 275.5 51.7188C275.438 53.4062 274.812 54.8438 273.625 56.0312C272.5 57.1562 271.094 57.75 269.406 57.8125H235H233.219C228.844 57.5625 225.219 55.9062 222.344 52.8438C219.531 49.7188 217.5 46.1875 216.25 42.25C215.062 38.3125 214.469 34.2812 214.469 30.1562C214.469 26.0312 215.094 22 216.344 18.0625C217.594 14.125 219.625 10.625 222.438 7.5625C225.25 4.4375 228.844 2.75 233.219 2.5ZM275.312 29.7812C275.312 31.5312 274.688 33 273.438 34.1875C272.25 35.4375 270.781 36.0625 269.031 36.0625H240.719C238.969 36.0625 237.469 35.4688 236.219 34.2812C235.031 33.0312 234.438 31.5312 234.438 29.7812C234.438 28.0312 235.031 26.5312 236.219 25.2812C237.469 24.0938 238.969 23.5 240.719 23.5H269.031C270.781 23.5 272.25 24.125 273.438 25.375C274.688 26.5625 275.312 28.0312 275.312 29.7812ZM297.531 53.0312C297.156 56.7812 295.094 58.8125 291.344 59.125C289.594 59.125 288.062 58.5625 286.75 57.4375C285.5 56.25 284.875 54.7812 284.875 53.0312V8.59375C284.938 6.84375 285.594 5.40625 286.844 4.28125C288.094 3.09375 289.594 2.5 291.344 2.5H295.938H307.469H330.625C331 2.5 331.375 2.53125 331.75 2.59375H332.312C336.688 2.71875 340.281 3.71875 343.094 5.59375C345.906 7.46875 347.938 9.625 349.188 12.0625C350.438 14.4375 351.062 16.8438 351.062 19.2812C351.062 21.7812 350.438 24.25 349.188 26.6875C348 29.0625 345.969 31.1875 343.094 33.0625C340.281 34.9375 336.688 35.9375 332.312 36.0625H315.812C316.312 39.1875 317.344 41.5 318.906 43C320.406 44.5 322.312 45.25 324.625 45.25H344.875C346.625 45.3125 348.062 45.9688 349.188 47.2188C350.375 48.4688 350.969 49.9688 350.969 51.7188C350.906 53.4062 350.281 54.8438 349.094 56.0312C347.969 57.1562 346.562 57.75 344.875 57.8125H322.938C318.312 57.875 314.125 56.0625 310.375 52.375C306.625 48.6875 304.344 44.3125 303.531 39.25C302.406 33.625 301.844 30.4688 301.844 29.7812C301.844 28.0312 302.438 26.5625 303.625 25.375C304.875 24.125 306.375 23.5 308.125 23.5H332.875C334.062 23.4375 335.031 23.1875 335.781 22.75C336.594 22.25 337.188 21.7188 337.562 21.1562C337.938 20.5312 338.125 19.9062 338.125 19.2812C338.125 18.6562 337.938 18.0625 337.562 17.5C337.188 16.875 336.594 16.3438 335.781 15.9062C335.031 15.4062 334.062 15.125 332.875 15.0625H307.469H299.969C298.344 15.125 297.531 15.9375 297.531 17.5V53.0312ZM43.6795 107V96.834L36.0295 83.2H41.1975L46.0255 92.108H46.0935L50.9555 83.2H56.1235L48.4395 96.868V107H43.6795ZM68.5173 83.2L77.0173 107H72.3253L70.5233 101.866H61.6153L59.8133 107H55.1213L63.6213 83.2H68.5173ZM66.0353 89.184L63.0433 97.786H69.0613L66.1033 89.184H66.0353ZM85.1715 91.598V107H80.4115V83.2H84.8655L95.1335 98.602H95.2015V83.2H99.9615V107H95.5075L85.2395 91.598H85.1715ZM116.761 83.2L125.261 107H120.569L118.767 101.866H109.859L108.057 107H103.365L111.865 83.2H116.761ZM114.279 89.184L111.287 97.786H117.305L114.347 89.184H114.279ZM133.416 91.598V107H128.656V83.2H133.11L143.378 98.602H143.446V83.2H148.206V107H143.752L133.484 91.598H133.416ZM197.312 83.2L205.812 107H201.12L199.318 101.866H190.41L188.608 107H183.916L192.416 83.2H197.312ZM194.83 89.184L191.838 97.786H197.856L194.898 89.184H194.83ZM270.225 107H264.989L259.889 98.024H256.931V107H252.171V83.2H265.057L269.001 85.478V95.746L265.057 98.024L270.225 107ZM256.931 87.28V93.944H264.241V87.28H256.931ZM274.783 107V83.2H279.543V107H274.783ZM285.308 94.93V85.308L289.252 83.03H297.854L301.798 85.308V89.83H297.038V87.11H290.068V92.788H297.854L301.798 95.066V104.892L297.854 107.17H288.912L284.968 104.892V100.37H289.728V103.09H297.038V97.208H289.252L285.308 94.93ZM318.603 83.2L327.103 107H322.411L320.609 101.866H311.701L309.899 107H305.207L313.707 83.2H318.603ZM316.121 89.184L313.129 97.786H319.147L316.189 89.184H316.121ZM330.497 94.93V85.308L334.441 83.03H343.043L346.987 85.308V89.83H342.227V87.11H335.257V92.788H343.043L346.987 95.066V104.892L343.043 107.17H334.101L330.157 104.892V100.37H334.917V103.09H342.227V97.208H334.441L330.497 94.93ZM352.777 107V83.2H357.537V107H352.777Z" fill="#FFCB05"/>
</svg>
